<svg width="50" height="50" viewBox="0 0 50 50" fill="none" xmlns="http://www.w3.org/2000/svg">
	<path d="M22.9191 20.8333H27.0857V31.25H22.9191V20.8333ZM22.917 33.3333H27.0837V37.5H22.917V33.3333Z" fill="currentColor" />
	<path d="M28.6833 8.75C27.9583 7.38541 26.5458 6.5375 25 6.5375C23.4541 6.5375 22.0416 7.38542 21.3166 8.75208L6.02914 37.6333C5.68991 38.2676 5.52187 38.9793 5.5416 39.6983C5.56132 40.4172 5.76814 41.1187 6.14164 41.7333C6.50976 42.3508 7.03256 42.8616 7.65841 43.2152C8.28426 43.5689 8.99153 43.7532 9.71039 43.75H40.2896C41.7646 43.75 43.1 42.9958 43.8604 41.7333C44.2333 41.1184 44.4398 40.4171 44.4595 39.6982C44.4792 38.9794 44.3115 38.2677 43.9729 37.6333L28.6833 8.75ZM9.71039 39.5833L25 10.7021L40.3 39.5833H9.71039Z" fill="currentColor" />
</svg>
