<svg width="50" height="50" viewBox="0 0 50 50" fill="none" xmlns="http://www.w3.org/2000/svg">
	<path d="M48 4.5H37.5V0.5C37.5 0.225 37.275 0 37 0H33.5C33.225 0 33 0.225 33 0.5V4.5H17V0.5C17 0.225 16.775 0 16.5 0H13C12.725 0 12.5 0.225 12.5 0.5V4.5H2C0.89375 4.5 0 5.39375 0 6.5V48C0 49.1063 0.89375 50 2 50H48C49.1063 50 50 49.1063 50 48V6.5C50 5.39375 49.1063 4.5 48 4.5ZM45.5 45.5H4.5V21.75H45.5V45.5ZM4.5 17.5V9H12.5V12C12.5 12.275 12.725 12.5 13 12.5H16.5C16.775 12.5 17 12.275 17 12V9H33V12C33 12.275 33.225 12.5 33.5 12.5H37C37.275 12.5 37.5 12.275 37.5 12V9H45.5V17.5H4.5Z" fill="currentColor" />
</svg>
