<svg viewBox="0 0 50 50" fill="none" xmlns="http://www.w3.org/2000/svg">
	<path d="M3.125 3.125H46.875V46.875H3.125V3.125Z" fill="#F5DE19" />
	<path d="M32.5139 37.3047C32.8866 38.0619 33.4658 38.6983 34.1845 39.1406C34.9033 39.5829 35.7324 39.8131 36.5764 39.8047C38.2795 39.8047 39.3686 38.9531 39.3686 37.7734C39.3686 36.3672 38.2498 35.8641 36.3748 35.0438L35.3467 34.6031C32.3779 33.3391 30.4092 31.7563 30.4092 28.4094C30.4092 25.3266 32.7529 22.9781 36.4295 22.9781C37.6197 22.8922 38.8088 23.1586 39.8485 23.744C40.8883 24.3295 41.7327 25.2081 42.2764 26.2703L39.0623 28.325C38.853 27.7983 38.4885 27.3477 38.0171 27.0329C37.5458 26.7182 36.9899 26.5541 36.4232 26.5625C36.176 26.5377 35.9263 26.5648 35.6901 26.6419C35.4538 26.7189 35.2363 26.8444 35.0512 27.0102C34.8661 27.176 34.7176 27.3785 34.6152 27.6049C34.5127 27.8313 34.4585 28.0765 34.4561 28.325C34.4561 29.5578 35.2201 30.0578 36.9842 30.825L38.0123 31.2656C41.5061 32.7641 43.4811 34.2906 43.4811 37.7234C43.4811 41.425 40.5732 43.4531 36.6686 43.4531C35.1472 43.5501 33.6302 43.2046 32.3008 42.4586C30.9713 41.7125 29.8862 40.5976 29.1764 39.2484L32.5139 37.3047ZM17.9904 37.6609C18.6357 38.8063 19.2232 39.775 20.6357 39.775C21.9857 39.775 22.8389 39.2469 22.8389 37.1922V23.2125H26.9498V37.2469C26.9498 41.5031 24.4498 43.4406 20.8107 43.4406C19.5244 43.5109 18.2469 43.1904 17.1462 42.5211C16.0455 41.8518 15.173 40.865 14.6436 39.6906L17.9904 37.6609Z" fill="black" />
</svg>
