<svg xmlns="http://www.w3.org/2000/svg" viewBox="0 0 448.11 514.15">
	<g id="Calque_1" data-name="Calque 1">
		<path d="M177.17,505.07H126V454.11c8.64,2.8,16.86,5.8,25.26,8.09s17.15,4,25.94,6" />
		<path d="M392.35,291.1c-1.81,8.8-3.12,18-5.57,26.46-18.08,63.05-57.7,108.91-122.58,131.08-68.86,23.54-132.28,10.67-187.53-34.84-37.67-31-59-71.24-65.53-118.3C-.25,213,42.85,135.55,116.39,99.31a190.43,190.43,0,0,1,77.9-19.39c78.48-3,149,42,180.63,109.44,4.17,8.89,7.08,18.32,10.48,27.53.21.57.4,1.14.56,1.73.23.84.42,1.68.57,2.54h-5.25c-10.46,0-20.93-.09-31.39.06-2.64,0-3.75-.7-4.65-3.14-13.78-37.21-38.3-65.92-74.84-84.7C217.26,106.07,152,112.68,106,150c-33.11,26.75-52.3,61-56.81,102.08C43.73,302.26,59.36,346,97.08,381.46c32.42,30.51,72.11,44.66,117.53,40.38,53.14-5,92.23-31.62,118.85-75.36,10-16.44,16-34.29,19-53.07.25-1.59.58-2.44,2.53-2.42,11.79.08,23.57.05,35.35.07C391,291.06,391.65,291.08,392.35,291.1Z" />
		<path d="M394.54,279.42H177.11V411.14c-3.73-.81-7.12-1.42-10.43-2.29a146.35,146.35,0,0,1-38.48-16.24c-1.18-.82-2.26-1.3-2.26-4.07q.09-118.8.11-237.61c0-1.25.62-3.07,1.6-3.68A140,140,0,0,1,174.6,128.7a20.84,20.84,0,0,1,2.34-.31l0,104.41H394.54Z" />
		<path d="M439.11,9.06V55.8H177V71.49C151,73.72,126.22,85,126.22,85v-76Z" />
	</g>
</svg>
