<svg width="42" height="34" viewBox="0 0 42 34" fill="none" xmlns="http://www.w3.org/2000/svg">
	<path d="M38.2249 9.44174L35.6624 13.2959C36.8982 15.7606 37.5032 18.4935 37.4232 21.2495C37.3432 24.0055 36.5807 26.6987 35.2041 29.0876H6.32905C4.53982 25.9836 3.79842 22.3857 4.21476 18.8273C4.63111 15.2689 6.18303 11.9393 8.64047 9.33221C11.0979 6.72513 14.33 4.97933 17.8577 4.35361C21.3853 3.72789 25.0207 4.25556 28.2249 5.85841L32.0791 3.29591C28.1551 0.779691 23.5006 -0.347833 18.8601 0.0936909C14.2196 0.535215 9.86123 2.52028 6.48216 5.73135C3.1031 8.94242 0.898557 13.194 0.221173 17.8059C-0.456211 22.4179 0.4327 27.1238 2.74572 31.1709C3.10928 31.8006 3.63132 32.3243 4.25995 32.6898C4.88858 33.0552 5.60191 33.2499 6.32905 33.2542H35.1832C35.9174 33.2572 36.6394 33.066 37.2759 32.7002C37.9125 32.3343 38.4411 31.8068 38.8082 31.1709C40.7278 27.8457 41.6911 24.0548 41.5918 20.2166C41.4925 16.3785 40.3346 12.6424 38.2457 9.42091L38.2249 9.44174Z" fill="currentColor" />
	<path d="M17.8295 23.6917C18.2164 24.0791 18.676 24.3865 19.1818 24.5962C19.6876 24.8058 20.2298 24.9138 20.7774 24.9138C21.3249 24.9138 21.8671 24.8058 22.373 24.5962C22.8788 24.3865 23.3383 24.0791 23.7253 23.6917L35.517 6.00424L17.8295 17.7959C17.442 18.1829 17.1347 18.6424 16.925 19.1482C16.7154 19.6541 16.6074 20.1963 16.6074 20.7438C16.6074 21.2914 16.7154 21.8336 16.925 22.3394C17.1347 22.8452 17.442 23.3048 17.8295 23.6917Z" fill="currentColor" />
</svg>
