<svg width="375" height="812" viewBox="0 0 375 812" fill="none" xmlns="http://www.w3.org/2000/svg">
<rect width="375" height="812" fill="#001E26"/>
<g filter="url(#filter0_dii_10_319)">
<rect x="30" y="42" width="314" height="81" rx="25" fill="#001E26"/>
</g>
<path d="M49.5636 95C49.5636 94.04 49.6356 93.14 49.7796 92.3C49.9476 91.46 50.2356 90.656 50.6436 89.888C51.0756 89.12 51.6756 88.388 52.4436 87.692C53.2116 86.972 54.2076 86.276 55.4316 85.604C56.1516 85.196 56.8716 84.812 57.5916 84.452C58.3356 84.092 59.0196 83.708 59.6436 83.3C60.2916 82.892 60.8076 82.448 61.1916 81.968C61.5756 81.464 61.7676 80.888 61.7676 80.24C61.7676 79.688 61.5996 79.16 61.2636 78.656C60.9516 78.128 60.4716 77.708 59.8236 77.396C59.1996 77.06 58.4196 76.892 57.4836 76.892C56.7636 76.892 56.1036 76.988 55.5036 77.18C54.9276 77.372 54.3996 77.624 53.9196 77.936C53.4636 78.224 53.0556 78.536 52.6956 78.872C52.3596 79.184 52.0716 79.472 51.8316 79.736L49.8516 77.504C50.0436 77.288 50.3676 77 50.8236 76.64C51.2796 76.256 51.8556 75.872 52.5516 75.488C53.2476 75.104 54.0516 74.78 54.9636 74.516C55.8996 74.228 56.9196 74.084 58.0236 74.084C59.5116 74.084 60.7836 74.348 61.8396 74.876C62.9196 75.38 63.7476 76.076 64.3236 76.964C64.8996 77.828 65.1876 78.8 65.1876 79.88C65.1876 80.816 64.9836 81.632 64.5756 82.328C64.1916 83.024 63.6876 83.636 63.0636 84.164C62.4636 84.692 61.8276 85.148 61.1556 85.532C60.5076 85.892 59.9196 86.204 59.3916 86.468C58.3116 86.996 57.3876 87.476 56.6196 87.908C55.8516 88.34 55.2156 88.772 54.7116 89.204C54.2316 89.612 53.8356 90.044 53.5236 90.5C53.2356 90.956 53.0196 91.496 52.8756 92.12H65.5836V95H49.5636ZM87.4413 84.452C87.4413 86.564 87.0453 88.448 86.2533 90.104C85.4613 91.736 84.3813 93.02 83.0133 93.956C81.6453 94.892 80.0853 95.36 78.3333 95.36C76.5813 95.36 75.0213 94.892 73.6533 93.956C72.2853 93.02 71.2053 91.736 70.4133 90.104C69.6213 88.448 69.2253 86.564 69.2253 84.452C69.2253 82.34 69.6213 80.468 70.4133 78.836C71.2053 77.18 72.2853 75.884 73.6533 74.948C75.0213 73.988 76.5813 73.508 78.3333 73.508C80.0853 73.508 81.6453 73.988 83.0133 74.948C84.3813 75.884 85.4613 77.18 86.2533 78.836C87.0453 80.468 87.4413 82.34 87.4413 84.452ZM84.2373 84.452C84.2373 82.868 83.9853 81.476 83.4813 80.276C82.9773 79.076 82.2813 78.14 81.3933 77.468C80.5053 76.796 79.4853 76.46 78.3333 76.46C77.1573 76.46 76.1253 76.796 75.2373 77.468C74.3493 78.14 73.6533 79.076 73.1493 80.276C72.6453 81.476 72.3933 82.868 72.3933 84.452C72.3933 86.036 72.6453 87.428 73.1493 88.628C73.6533 89.804 74.3493 90.728 75.2373 91.4C76.1253 92.072 77.1573 92.408 78.3333 92.408C79.4853 92.408 80.5053 92.072 81.3933 91.4C82.2813 90.728 82.9773 89.804 83.4813 88.628C83.9853 87.428 84.2373 86.036 84.2373 84.452ZM101.815 99.572V93.488H90.2585V90.68L102.823 74.444H104.983V90.608H108.151V93.488H104.983V99.572H101.815ZM93.5345 90.608H102.139V79.34L93.5345 90.608ZM129.233 87.764C129.233 89.276 128.813 90.596 127.973 91.724C127.157 92.852 126.053 93.728 124.661 94.352C123.293 94.976 121.793 95.288 120.161 95.288C118.457 95.288 116.933 94.952 115.589 94.28C114.245 93.584 113.177 92.66 112.385 91.508C111.617 90.356 111.233 89.06 111.233 87.62C111.233 86.564 111.473 85.616 111.953 84.776C112.433 83.936 113.033 83.228 113.753 82.652C114.497 82.052 115.253 81.608 116.021 81.32C115.325 81.008 114.677 80.6 114.077 80.096C113.477 79.592 112.997 79.004 112.637 78.332C112.277 77.66 112.097 76.928 112.097 76.136C112.097 75.056 112.337 74.108 112.817 73.292C113.297 72.452 113.933 71.744 114.725 71.168C115.517 70.592 116.393 70.16 117.353 69.872C118.313 69.584 119.273 69.44 120.233 69.44C121.193 69.44 122.153 69.584 123.113 69.872C124.073 70.16 124.949 70.592 125.741 71.168C126.557 71.72 127.205 72.416 127.685 73.256C128.165 74.072 128.405 75.02 128.405 76.1C128.405 76.892 128.225 77.636 127.865 78.332C127.505 79.004 127.013 79.592 126.389 80.096C125.789 80.6 125.129 81.008 124.409 81.32C125.273 81.656 126.065 82.136 126.785 82.76C127.529 83.36 128.117 84.08 128.549 84.92C129.005 85.76 129.233 86.708 129.233 87.764ZM126.029 87.548C126.029 86.78 125.861 86.096 125.525 85.496C125.189 84.872 124.733 84.356 124.157 83.948C123.581 83.516 122.945 83.192 122.249 82.976C121.577 82.76 120.893 82.652 120.197 82.652C119.237 82.652 118.313 82.856 117.425 83.264C116.561 83.672 115.853 84.248 115.301 84.992C114.749 85.712 114.473 86.576 114.473 87.584C114.473 88.328 114.641 89 114.977 89.6C115.313 90.2 115.757 90.716 116.309 91.148C116.885 91.58 117.509 91.904 118.181 92.12C118.877 92.336 119.573 92.444 120.269 92.444C121.229 92.444 122.141 92.24 123.005 91.832C123.893 91.424 124.613 90.848 125.165 90.104C125.741 89.36 126.029 88.508 126.029 87.548ZM115.301 76.244C115.301 77.084 115.553 77.804 116.057 78.404C116.561 79.004 117.197 79.46 117.965 79.772C118.733 80.06 119.489 80.204 120.233 80.204C121.001 80.204 121.757 80.048 122.501 79.736C123.269 79.424 123.905 78.968 124.409 78.368C124.913 77.768 125.165 77.036 125.165 76.172C125.165 75.356 124.925 74.66 124.445 74.084C123.989 73.508 123.377 73.064 122.609 72.752C121.865 72.44 121.061 72.284 120.197 72.284C119.357 72.284 118.553 72.452 117.785 72.788C117.041 73.1 116.441 73.556 115.985 74.156C115.529 74.732 115.301 75.428 115.301 76.244Z" fill="white"/>
<path d="M283.222 73.706C283.222 74.342 283.06 74.912 282.736 75.416C282.412 75.908 281.974 76.298 281.422 76.586C280.882 76.862 280.288 77 279.64 77H273.61V64.22H279.766C280.366 64.22 280.882 64.382 281.314 64.706C281.758 65.018 282.094 65.426 282.322 65.93C282.562 66.422 282.682 66.938 282.682 67.478C282.682 68.114 282.52 68.702 282.196 69.242C281.872 69.782 281.422 70.184 280.846 70.448C281.578 70.664 282.154 71.066 282.574 71.654C283.006 72.242 283.222 72.926 283.222 73.706ZM281.962 73.49C281.962 73.058 281.866 72.662 281.674 72.302C281.482 71.93 281.218 71.63 280.882 71.402C280.558 71.174 280.186 71.06 279.766 71.06H274.87V75.902H279.64C280.072 75.902 280.462 75.788 280.81 75.56C281.158 75.332 281.434 75.038 281.638 74.678C281.854 74.306 281.962 73.91 281.962 73.49ZM274.87 65.318V70.034H279.262C279.682 70.034 280.054 69.926 280.378 69.71C280.702 69.482 280.96 69.188 281.152 68.828C281.344 68.468 281.44 68.084 281.44 67.676C281.44 67.244 281.35 66.854 281.17 66.506C280.99 66.146 280.744 65.858 280.432 65.642C280.12 65.426 279.766 65.318 279.37 65.318H274.87ZM290.297 77.18C289.625 77.18 289.001 77.054 288.425 76.802C287.849 76.538 287.351 76.184 286.931 75.74C286.511 75.284 286.181 74.762 285.941 74.174C285.713 73.586 285.599 72.956 285.599 72.284C285.599 71.408 285.797 70.604 286.193 69.872C286.601 69.14 287.159 68.558 287.867 68.126C288.575 67.682 289.379 67.46 290.279 67.46C291.203 67.46 292.007 67.682 292.691 68.126C293.387 68.57 293.933 69.158 294.329 69.89C294.725 70.61 294.923 71.402 294.923 72.266C294.923 72.362 294.923 72.458 294.923 72.554C294.923 72.638 294.917 72.704 294.905 72.752H286.877C286.937 73.424 287.123 74.024 287.435 74.552C287.759 75.068 288.173 75.482 288.677 75.794C289.193 76.094 289.751 76.244 290.351 76.244C290.963 76.244 291.539 76.088 292.079 75.776C292.631 75.464 293.015 75.056 293.231 74.552L294.293 74.84C294.101 75.284 293.807 75.686 293.411 76.046C293.015 76.406 292.547 76.688 292.007 76.892C291.479 77.084 290.909 77.18 290.297 77.18ZM286.841 71.87H293.771C293.723 71.186 293.537 70.586 293.213 70.07C292.901 69.554 292.487 69.152 291.971 68.864C291.467 68.564 290.909 68.414 290.297 68.414C289.685 68.414 289.127 68.564 288.623 68.864C288.119 69.152 287.705 69.56 287.381 70.088C287.069 70.604 286.889 71.198 286.841 71.87ZM300.789 77.18C300.021 77.18 299.307 77.054 298.647 76.802C297.987 76.55 297.417 76.166 296.937 75.65L297.441 74.786C297.969 75.278 298.497 75.638 299.025 75.866C299.565 76.082 300.135 76.19 300.735 76.19C301.467 76.19 302.061 76.046 302.517 75.758C302.973 75.458 303.201 75.032 303.201 74.48C303.201 74.108 303.087 73.826 302.859 73.634C302.643 73.43 302.325 73.268 301.905 73.148C301.497 73.016 301.005 72.878 300.429 72.734C299.781 72.554 299.235 72.368 298.791 72.176C298.359 71.972 298.029 71.72 297.801 71.42C297.585 71.108 297.477 70.706 297.477 70.214C297.477 69.602 297.627 69.098 297.927 68.702C298.239 68.294 298.659 67.988 299.187 67.784C299.727 67.568 300.327 67.46 300.987 67.46C301.707 67.46 302.343 67.574 302.895 67.802C303.447 68.03 303.897 68.348 304.245 68.756L303.651 69.584C303.315 69.2 302.913 68.918 302.445 68.738C301.989 68.546 301.479 68.45 300.915 68.45C300.531 68.45 300.165 68.504 299.817 68.612C299.469 68.708 299.181 68.876 298.953 69.116C298.737 69.344 298.629 69.662 298.629 70.07C298.629 70.406 298.713 70.67 298.881 70.862C299.049 71.042 299.301 71.198 299.637 71.33C299.973 71.45 300.387 71.582 300.879 71.726C301.587 71.918 302.205 72.116 302.733 72.32C303.261 72.512 303.669 72.764 303.957 73.076C304.245 73.388 304.389 73.826 304.389 74.39C304.389 75.266 304.059 75.95 303.399 76.442C302.739 76.934 301.869 77.18 300.789 77.18ZM311.812 76.55C311.716 76.586 311.566 76.652 311.362 76.748C311.158 76.844 310.912 76.928 310.624 77C310.336 77.072 310.024 77.108 309.688 77.108C309.34 77.108 309.01 77.042 308.698 76.91C308.398 76.778 308.158 76.58 307.978 76.316C307.798 76.04 307.708 75.704 307.708 75.308V68.594H306.412V67.622H307.708V64.454H308.932V67.622H311.092V68.594H308.932V74.966C308.956 75.302 309.076 75.554 309.292 75.722C309.52 75.89 309.778 75.974 310.066 75.974C310.402 75.974 310.708 75.92 310.984 75.812C311.26 75.692 311.428 75.608 311.488 75.56L311.812 76.55Z" fill="white"/>
<path d="M277.274 100.286V97.244H271.496V95.84L277.778 87.722H278.858V95.804H280.442V97.244H278.858V100.286H277.274ZM273.134 95.804H277.436V90.17L273.134 95.804ZM291.218 93.77C291.218 92.966 291.02 92.24 290.624 91.592C290.24 90.944 289.712 90.428 289.04 90.044C288.38 89.66 287.636 89.468 286.808 89.468C286.316 89.468 285.848 89.552 285.404 89.72C284.972 89.888 284.594 90.128 284.27 90.44C283.946 90.74 283.694 91.1 283.514 91.52C283.526 90.464 283.664 89.564 283.928 88.82C284.204 88.076 284.588 87.506 285.08 87.11C285.572 86.714 286.142 86.516 286.79 86.516C287.426 86.516 288.002 86.684 288.518 87.02C289.034 87.344 289.424 87.788 289.688 88.352L290.66 87.398C290.276 86.69 289.742 86.138 289.058 85.742C288.386 85.334 287.636 85.13 286.808 85.13C285.848 85.13 285.008 85.412 284.288 85.976C283.568 86.528 283.01 87.362 282.614 88.478C282.218 89.594 282.02 90.992 282.02 92.672C282.02 93.812 282.212 94.796 282.596 95.624C282.992 96.452 283.538 97.088 284.234 97.532C284.93 97.964 285.734 98.18 286.646 98.18C287.51 98.18 288.284 97.982 288.968 97.586C289.664 97.19 290.21 96.662 290.606 96.002C291.014 95.33 291.218 94.586 291.218 93.77ZM286.664 96.812C286.112 96.812 285.602 96.674 285.134 96.398C284.678 96.122 284.312 95.756 284.036 95.3C283.76 94.832 283.622 94.322 283.622 93.77C283.622 93.218 283.76 92.714 284.036 92.258C284.312 91.802 284.678 91.436 285.134 91.16C285.602 90.884 286.112 90.746 286.664 90.746C287.216 90.746 287.72 90.884 288.176 91.16C288.644 91.436 289.016 91.802 289.292 92.258C289.568 92.714 289.706 93.218 289.706 93.77C289.706 94.322 289.568 94.832 289.292 95.3C289.016 95.756 288.644 96.122 288.176 96.398C287.72 96.674 287.216 96.812 286.664 96.812ZM296.734 100.682C295.822 100.682 295 100.466 294.268 100.034C293.536 99.602 292.984 99.026 292.612 98.306L293.602 97.442C293.938 97.994 294.382 98.438 294.934 98.774C295.498 99.11 296.104 99.278 296.752 99.278C297.304 99.278 297.796 99.158 298.228 98.918C298.66 98.678 299.002 98.348 299.254 97.928C299.506 97.496 299.632 97.004 299.632 96.452C299.632 95.912 299.506 95.438 299.254 95.03C299.014 94.622 298.684 94.304 298.264 94.076C297.856 93.848 297.394 93.734 296.878 93.734C296.362 93.734 295.876 93.848 295.42 94.076C294.976 94.304 294.61 94.628 294.322 95.048H292.9L294.34 87.722H300.55V89.18H295.51L294.736 93.248C295 92.972 295.33 92.756 295.726 92.6C296.134 92.432 296.584 92.348 297.076 92.348C297.868 92.348 298.576 92.522 299.2 92.87C299.836 93.218 300.334 93.698 300.694 94.31C301.066 94.922 301.252 95.63 301.252 96.434C301.252 97.274 301.048 98.012 300.64 98.648C300.244 99.296 299.704 99.794 299.02 100.142C298.336 100.502 297.574 100.682 296.734 100.682ZM311.959 92.726C311.959 93.782 311.761 94.724 311.365 95.552C310.969 96.368 310.429 97.01 309.745 97.478C309.061 97.946 308.281 98.18 307.405 98.18C306.529 98.18 305.749 97.946 305.065 97.478C304.381 97.01 303.841 96.368 303.445 95.552C303.049 94.724 302.851 93.782 302.851 92.726C302.851 91.67 303.049 90.734 303.445 89.918C303.841 89.09 304.381 88.442 305.065 87.974C305.749 87.494 306.529 87.254 307.405 87.254C308.281 87.254 309.061 87.494 309.745 87.974C310.429 88.442 310.969 89.09 311.365 89.918C311.761 90.734 311.959 91.67 311.959 92.726ZM310.357 92.726C310.357 91.934 310.231 91.238 309.979 90.638C309.727 90.038 309.379 89.57 308.935 89.234C308.491 88.898 307.981 88.73 307.405 88.73C306.817 88.73 306.301 88.898 305.857 89.234C305.413 89.57 305.065 90.038 304.813 90.638C304.561 91.238 304.435 91.934 304.435 92.726C304.435 93.518 304.561 94.214 304.813 94.814C305.065 95.402 305.413 95.864 305.857 96.2C306.301 96.536 306.817 96.704 307.405 96.704C307.981 96.704 308.491 96.536 308.935 96.2C309.379 95.864 309.727 95.402 309.979 94.814C310.231 94.214 310.357 93.518 310.357 92.726Z" fill="#24B685"/>
<g filter="url(#filter1_dii_10_319)">
<rect x="278" y="703" width="60" height="60" rx="25" fill="#001E26"/>
</g>
<path d="M303.312 725.693C303.312 725.693 301.528 724.814 308 724.814C310.318 724.814 312.583 725.502 314.511 726.789C316.438 728.077 317.94 729.907 318.827 732.049C319.714 734.19 319.946 736.546 319.494 738.819C319.041 741.093 317.925 743.181 316.286 744.82C314.648 746.459 312.559 747.575 310.286 748.027C308.013 748.479 305.657 748.247 303.515 747.36C301.374 746.473 299.544 744.971 298.256 743.044C296.969 741.117 296.281 738.851 296.281 736.533" stroke="#24B685" stroke-width="3.125" stroke-miterlimit="10" stroke-linecap="round"/>
<path d="M308 719.248L302.141 725.107L308 730.967" stroke="#24B685" stroke-width="3.125" stroke-linecap="round" stroke-linejoin="round"/>
<g filter="url(#filter2_dii_10_319)">
<rect x="37" y="703" width="60" height="60" rx="25" fill="#001E26"/>
</g>
<path d="M66.4141 719.688C58.9719 719.688 52.9375 725.722 52.9375 733.164C52.9375 740.606 58.9719 746.641 66.4141 746.641C73.8562 746.641 79.8906 740.606 79.8906 733.164C79.8906 725.722 73.8562 719.688 66.4141 719.688Z" stroke="#24B685" stroke-width="3.125" stroke-miterlimit="10"/>
<path d="M64.3633 731.113H66.707V739.609" stroke="#24B685" stroke-width="3.125" stroke-linecap="round" stroke-linejoin="round"/>
<path d="M63.4844 739.902H69.9297" stroke="#24B685" stroke-width="3.125" stroke-miterlimit="10" stroke-linecap="round"/>
<path d="M66.4141 724.521C66.0374 724.521 65.6693 724.633 65.3561 724.842C65.0429 725.052 64.7989 725.349 64.6547 725.697C64.5106 726.045 64.4729 726.428 64.5464 726.797C64.6198 727.167 64.8012 727.506 65.0675 727.772C65.3338 728.039 65.6732 728.22 66.0426 728.293C66.412 728.367 66.7948 728.329 67.1428 728.185C67.4908 728.041 67.7882 727.797 67.9974 727.484C68.2067 727.171 68.3184 726.802 68.3184 726.426C68.3184 725.921 68.1177 725.436 67.7606 725.079C67.4035 724.722 66.9191 724.521 66.4141 724.521Z" fill="#24B685"/>
<path d="M94.4703 518.96L100.038 528.128L105.654 518.96H107.478L100.878 529.664V536H99.1983V529.616L92.6223 518.96H94.4703ZM112.796 536.24C111.9 536.24 111.068 536.072 110.3 535.736C109.548 535.384 108.892 534.912 108.332 534.32C107.788 533.712 107.364 533.024 107.06 532.256C106.756 531.472 106.604 530.648 106.604 529.784C106.604 528.888 106.756 528.056 107.06 527.288C107.364 526.504 107.796 525.816 108.356 525.224C108.916 524.616 109.572 524.144 110.324 523.808C111.092 523.456 111.924 523.28 112.82 523.28C113.716 523.28 114.54 523.456 115.292 523.808C116.044 524.144 116.7 524.616 117.26 525.224C117.82 525.816 118.252 526.504 118.556 527.288C118.86 528.056 119.012 528.888 119.012 529.784C119.012 530.648 118.86 531.472 118.556 532.256C118.252 533.024 117.82 533.712 117.26 534.32C116.716 534.912 116.06 535.384 115.292 535.736C114.54 536.072 113.708 536.24 112.796 536.24ZM108.26 529.808C108.26 530.736 108.46 531.584 108.86 532.352C109.276 533.104 109.828 533.704 110.516 534.152C111.204 534.584 111.964 534.8 112.796 534.8C113.628 534.8 114.388 534.576 115.076 534.128C115.764 533.68 116.316 533.072 116.732 532.304C117.148 531.52 117.356 530.672 117.356 529.76C117.356 528.832 117.148 527.984 116.732 527.216C116.316 526.448 115.764 525.84 115.076 525.392C114.388 524.944 113.628 524.72 112.796 524.72C111.964 524.72 111.204 524.952 110.516 525.416C109.844 525.88 109.3 526.496 108.884 527.264C108.468 528.016 108.26 528.864 108.26 529.808ZM121.621 530.84V523.496H123.253V530.552C123.253 531.976 123.493 533.04 123.973 533.744C124.469 534.448 125.197 534.8 126.157 534.8C126.797 534.8 127.413 534.664 128.005 534.392C128.613 534.104 129.149 533.704 129.613 533.192C130.077 532.664 130.429 532.056 130.669 531.368V523.496H132.301V534.032C132.301 534.256 132.349 534.424 132.445 534.536C132.541 534.632 132.685 534.688 132.877 534.704V536C132.685 536.016 132.533 536.024 132.421 536.024C132.309 536.04 132.205 536.048 132.109 536.048C131.789 536.016 131.509 535.888 131.269 535.664C131.045 535.44 130.925 535.168 130.909 534.848L130.861 533.168C130.317 534.128 129.573 534.88 128.629 535.424C127.701 535.968 126.693 536.24 125.605 536.24C124.293 536.24 123.301 535.784 122.629 534.872C121.957 533.96 121.621 532.616 121.621 530.84ZM142.231 524.936C141.143 524.968 140.183 525.272 139.351 525.848C138.535 526.424 137.959 527.216 137.623 528.224V536H135.991V523.496H137.527V526.496C137.959 525.616 138.527 524.904 139.231 524.36C139.951 523.816 140.711 523.512 141.511 523.448C141.671 523.432 141.807 523.424 141.919 523.424C142.047 523.424 142.151 523.432 142.231 523.448V524.936ZM148.952 532.4C148.952 531.616 149.176 530.944 149.624 530.384C150.072 529.808 150.688 529.368 151.472 529.064C152.272 528.744 153.192 528.584 154.232 528.584C154.84 528.584 155.472 528.632 156.128 528.728C156.784 528.824 157.368 528.968 157.88 529.16V528.104C157.88 527.048 157.568 526.208 156.944 525.584C156.32 524.96 155.456 524.648 154.352 524.648C153.68 524.648 153.016 524.776 152.36 525.032C151.72 525.272 151.048 525.632 150.344 526.112L149.72 524.96C150.536 524.4 151.336 523.984 152.12 523.712C152.904 523.424 153.704 523.28 154.52 523.28C156.056 523.28 157.272 523.72 158.168 524.6C159.064 525.48 159.512 526.696 159.512 528.248V534.032C159.512 534.256 159.56 534.424 159.656 534.536C159.752 534.632 159.904 534.688 160.112 534.704V536C159.936 536.016 159.784 536.032 159.656 536.048C159.528 536.064 159.432 536.064 159.368 536.048C158.968 536.032 158.664 535.904 158.456 535.664C158.248 535.424 158.136 535.168 158.12 534.896L158.096 533.984C157.536 534.704 156.808 535.264 155.912 535.664C155.016 536.048 154.104 536.24 153.176 536.24C152.376 536.24 151.648 536.072 150.992 535.736C150.352 535.384 149.848 534.92 149.48 534.344C149.128 533.752 148.952 533.104 148.952 532.4ZM157.328 533.36C157.504 533.136 157.64 532.92 157.736 532.712C157.832 532.504 157.88 532.32 157.88 532.16V530.336C157.336 530.128 156.768 529.968 156.176 529.856C155.6 529.744 155.016 529.688 154.424 529.688C153.256 529.688 152.312 529.92 151.592 530.384C150.872 530.848 150.512 531.48 150.512 532.28C150.512 532.744 150.632 533.184 150.872 533.6C151.112 534 151.464 534.336 151.928 534.608C152.392 534.864 152.936 534.992 153.56 534.992C154.344 534.992 155.072 534.84 155.744 534.536C156.432 534.232 156.96 533.84 157.328 533.36ZM168.462 536.24C167.55 536.24 166.71 536.072 165.942 535.736C165.19 535.384 164.526 534.904 163.95 534.296C163.39 533.688 162.95 532.992 162.63 532.208C162.326 531.424 162.174 530.592 162.174 529.712C162.174 528.528 162.438 527.448 162.966 526.472C163.494 525.496 164.23 524.72 165.174 524.144C166.118 523.568 167.206 523.28 168.438 523.28C169.606 523.28 170.638 523.552 171.534 524.096C172.43 524.624 173.094 525.344 173.526 526.256L171.942 526.76C171.59 526.12 171.094 525.624 170.454 525.272C169.83 524.904 169.134 524.72 168.366 524.72C167.534 524.72 166.774 524.936 166.086 525.368C165.398 525.8 164.846 526.392 164.43 527.144C164.03 527.896 163.83 528.752 163.83 529.712C163.83 530.656 164.038 531.512 164.454 532.28C164.87 533.048 165.422 533.664 166.11 534.128C166.798 534.576 167.558 534.8 168.39 534.8C168.934 534.8 169.454 534.704 169.95 534.512C170.462 534.32 170.902 534.064 171.27 533.744C171.654 533.408 171.91 533.048 172.038 532.664L173.646 533.144C173.422 533.736 173.046 534.272 172.518 534.752C172.006 535.216 171.398 535.584 170.694 535.856C170.006 536.112 169.262 536.24 168.462 536.24ZM182.21 535.4C182.082 535.448 181.882 535.536 181.61 535.664C181.338 535.792 181.01 535.904 180.626 536C180.242 536.096 179.826 536.144 179.378 536.144C178.914 536.144 178.474 536.056 178.058 535.88C177.658 535.704 177.338 535.44 177.098 535.088C176.858 534.72 176.738 534.272 176.738 533.744V524.792H175.01V523.496H176.738V519.272H178.37V523.496H181.25V524.792H178.37V533.288C178.402 533.736 178.562 534.072 178.85 534.296C179.154 534.52 179.498 534.632 179.882 534.632C180.33 534.632 180.738 534.56 181.106 534.416C181.474 534.256 181.698 534.144 181.778 534.08L182.21 535.4ZM184.129 530.84V523.496H185.761V530.552C185.761 531.976 186.001 533.04 186.481 533.744C186.977 534.448 187.705 534.8 188.665 534.8C189.305 534.8 189.921 534.664 190.513 534.392C191.121 534.104 191.657 533.704 192.121 533.192C192.585 532.664 192.937 532.056 193.177 531.368V523.496H194.809V534.032C194.809 534.256 194.857 534.424 194.953 534.536C195.049 534.632 195.193 534.688 195.385 534.704V536C195.193 536.016 195.041 536.024 194.929 536.024C194.817 536.04 194.713 536.048 194.617 536.048C194.297 536.016 194.017 535.888 193.777 535.664C193.553 535.44 193.433 535.168 193.417 534.848L193.369 533.168C192.825 534.128 192.081 534.88 191.137 535.424C190.209 535.968 189.201 536.24 188.113 536.24C186.801 536.24 185.809 535.784 185.137 534.872C184.465 533.96 184.129 532.616 184.129 530.84ZM197.491 532.4C197.491 531.616 197.715 530.944 198.163 530.384C198.611 529.808 199.227 529.368 200.011 529.064C200.811 528.744 201.731 528.584 202.771 528.584C203.379 528.584 204.011 528.632 204.667 528.728C205.323 528.824 205.907 528.968 206.419 529.16V528.104C206.419 527.048 206.107 526.208 205.483 525.584C204.859 524.96 203.995 524.648 202.891 524.648C202.219 524.648 201.555 524.776 200.899 525.032C200.259 525.272 199.587 525.632 198.883 526.112L198.259 524.96C199.075 524.4 199.875 523.984 200.659 523.712C201.443 523.424 202.243 523.28 203.059 523.28C204.595 523.28 205.811 523.72 206.707 524.6C207.603 525.48 208.051 526.696 208.051 528.248V534.032C208.051 534.256 208.099 534.424 208.195 534.536C208.291 534.632 208.443 534.688 208.651 534.704V536C208.475 536.016 208.323 536.032 208.195 536.048C208.067 536.064 207.971 536.064 207.907 536.048C207.507 536.032 207.203 535.904 206.995 535.664C206.787 535.424 206.675 535.168 206.659 534.896L206.635 533.984C206.075 534.704 205.347 535.264 204.451 535.664C203.555 536.048 202.643 536.24 201.715 536.24C200.915 536.24 200.187 536.072 199.531 535.736C198.891 535.384 198.387 534.92 198.019 534.344C197.667 533.752 197.491 533.104 197.491 532.4ZM205.867 533.36C206.043 533.136 206.179 532.92 206.275 532.712C206.371 532.504 206.419 532.32 206.419 532.16V530.336C205.875 530.128 205.307 529.968 204.715 529.856C204.139 529.744 203.555 529.688 202.963 529.688C201.795 529.688 200.851 529.92 200.131 530.384C199.411 530.848 199.051 531.48 199.051 532.28C199.051 532.744 199.171 533.184 199.411 533.6C199.651 534 200.003 534.336 200.467 534.608C200.931 534.864 201.475 534.992 202.099 534.992C202.883 534.992 203.611 534.84 204.283 534.536C204.971 534.232 205.499 533.84 205.867 533.36ZM211.649 518.48H213.281V533.168C213.281 533.792 213.393 534.2 213.617 534.392C213.841 534.584 214.113 534.68 214.433 534.68C214.721 534.68 215.009 534.648 215.297 534.584C215.585 534.52 215.833 534.456 216.041 534.392L216.329 535.712C216.025 535.84 215.649 535.944 215.201 536.024C214.769 536.104 214.393 536.144 214.073 536.144C213.337 536.144 212.745 535.928 212.297 535.496C211.865 535.064 211.649 534.472 211.649 533.72V518.48ZM227.611 536.24C226.587 536.24 225.635 536.072 224.755 535.736C223.875 535.4 223.115 534.888 222.475 534.2L223.147 533.048C223.851 533.704 224.555 534.184 225.259 534.488C225.979 534.776 226.739 534.92 227.539 534.92C228.515 534.92 229.307 534.728 229.915 534.344C230.523 533.944 230.827 533.376 230.827 532.64C230.827 532.144 230.675 531.768 230.371 531.512C230.083 531.24 229.659 531.024 229.099 530.864C228.555 530.688 227.899 530.504 227.131 530.312C226.267 530.072 225.539 529.824 224.947 529.568C224.371 529.296 223.931 528.96 223.627 528.56C223.339 528.144 223.195 527.608 223.195 526.952C223.195 526.136 223.395 525.464 223.795 524.936C224.211 524.392 224.771 523.984 225.475 523.712C226.195 523.424 226.995 523.28 227.875 523.28C228.835 523.28 229.683 523.432 230.419 523.736C231.155 524.04 231.755 524.464 232.219 525.008L231.427 526.112C230.979 525.6 230.443 525.224 229.819 524.984C229.211 524.728 228.531 524.6 227.779 524.6C227.267 524.6 226.779 524.672 226.315 524.816C225.851 524.944 225.467 525.168 225.163 525.488C224.875 525.792 224.731 526.216 224.731 526.76C224.731 527.208 224.843 527.56 225.067 527.816C225.291 528.056 225.627 528.264 226.075 528.44C226.523 528.6 227.075 528.776 227.731 528.968C228.675 529.224 229.499 529.488 230.203 529.76C230.907 530.016 231.451 530.352 231.835 530.768C232.219 531.184 232.411 531.768 232.411 532.52C232.411 533.688 231.971 534.6 231.091 535.256C230.211 535.912 229.051 536.24 227.611 536.24ZM240.533 536.24C239.621 536.24 238.781 536.072 238.013 535.736C237.261 535.384 236.597 534.904 236.021 534.296C235.461 533.688 235.021 532.992 234.701 532.208C234.397 531.424 234.245 530.592 234.245 529.712C234.245 528.528 234.509 527.448 235.037 526.472C235.565 525.496 236.301 524.72 237.245 524.144C238.189 523.568 239.277 523.28 240.509 523.28C241.677 523.28 242.709 523.552 243.605 524.096C244.501 524.624 245.165 525.344 245.597 526.256L244.013 526.76C243.661 526.12 243.165 525.624 242.525 525.272C241.901 524.904 241.205 524.72 240.437 524.72C239.605 524.72 238.845 524.936 238.157 525.368C237.469 525.8 236.917 526.392 236.501 527.144C236.101 527.896 235.901 528.752 235.901 529.712C235.901 530.656 236.109 531.512 236.525 532.28C236.941 533.048 237.493 533.664 238.181 534.128C238.869 534.576 239.629 534.8 240.461 534.8C241.005 534.8 241.525 534.704 242.021 534.512C242.533 534.32 242.973 534.064 243.341 533.744C243.725 533.408 243.981 533.048 244.109 532.664L245.717 533.144C245.493 533.736 245.117 534.272 244.589 534.752C244.077 535.216 243.469 535.584 242.765 535.856C242.077 536.112 241.333 536.24 240.533 536.24ZM253.491 536.24C252.595 536.24 251.763 536.072 250.995 535.736C250.243 535.384 249.587 534.912 249.027 534.32C248.483 533.712 248.059 533.024 247.755 532.256C247.451 531.472 247.299 530.648 247.299 529.784C247.299 528.888 247.451 528.056 247.755 527.288C248.059 526.504 248.491 525.816 249.051 525.224C249.611 524.616 250.267 524.144 251.019 523.808C251.787 523.456 252.619 523.28 253.515 523.28C254.411 523.28 255.235 523.456 255.987 523.808C256.739 524.144 257.395 524.616 257.955 525.224C258.515 525.816 258.947 526.504 259.251 527.288C259.555 528.056 259.707 528.888 259.707 529.784C259.707 530.648 259.555 531.472 259.251 532.256C258.947 533.024 258.515 533.712 257.955 534.32C257.411 534.912 256.755 535.384 255.987 535.736C255.235 536.072 254.403 536.24 253.491 536.24ZM248.955 529.808C248.955 530.736 249.155 531.584 249.555 532.352C249.971 533.104 250.523 533.704 251.211 534.152C251.899 534.584 252.659 534.8 253.491 534.8C254.323 534.8 255.083 534.576 255.771 534.128C256.459 533.68 257.011 533.072 257.427 532.304C257.843 531.52 258.051 530.672 258.051 529.76C258.051 528.832 257.843 527.984 257.427 527.216C257.011 526.448 256.459 525.84 255.771 525.392C255.083 524.944 254.323 524.72 253.491 524.72C252.659 524.72 251.899 524.952 251.211 525.416C250.539 525.88 249.995 526.496 249.579 527.264C249.163 528.016 248.955 528.864 248.955 529.808ZM268.677 524.936C267.589 524.968 266.629 525.272 265.797 525.848C264.981 526.424 264.405 527.216 264.069 528.224V536H262.437V523.496H263.973V526.496C264.405 525.616 264.973 524.904 265.677 524.36C266.397 523.816 267.157 523.512 267.957 523.448C268.117 523.432 268.253 523.424 268.365 523.424C268.493 523.424 268.597 523.432 268.677 523.448V524.936ZM275.876 536.24C274.98 536.24 274.148 536.072 273.38 535.736C272.612 535.384 271.948 534.912 271.388 534.32C270.828 533.712 270.388 533.016 270.068 532.232C269.764 531.448 269.612 530.608 269.612 529.712C269.612 528.544 269.876 527.472 270.404 526.496C270.948 525.52 271.692 524.744 272.636 524.168C273.58 523.576 274.652 523.28 275.852 523.28C277.084 523.28 278.156 523.576 279.068 524.168C279.996 524.76 280.724 525.544 281.252 526.52C281.78 527.48 282.044 528.536 282.044 529.688C282.044 529.816 282.044 529.944 282.044 530.072C282.044 530.184 282.036 530.272 282.02 530.336H271.316C271.396 531.232 271.644 532.032 272.06 532.736C272.492 533.424 273.044 533.976 273.716 534.392C274.404 534.792 275.148 534.992 275.948 534.992C276.764 534.992 277.532 534.784 278.252 534.368C278.988 533.952 279.5 533.408 279.788 532.736L281.204 533.12C280.948 533.712 280.556 534.248 280.028 534.728C279.5 535.208 278.876 535.584 278.156 535.856C277.452 536.112 276.692 536.24 275.876 536.24ZM271.268 529.16H280.508C280.444 528.248 280.196 527.448 279.764 526.76C279.348 526.072 278.796 525.536 278.108 525.152C277.436 524.752 276.692 524.552 275.876 524.552C275.06 524.552 274.316 524.752 273.644 525.152C272.972 525.536 272.42 526.08 271.988 526.784C271.572 527.472 271.332 528.264 271.268 529.16Z" fill="white"/>
<path d="M147.732 607.096V598.984H132.324V595.24L149.076 573.592H151.956V595.144H156.18V598.984H151.956V607.096H147.732ZM136.692 595.144H148.164V580.12L136.692 595.144ZM184.914 589.72C184.914 587.576 184.386 585.64 183.33 583.912C182.306 582.184 180.898 580.808 179.106 579.784C177.346 578.76 175.362 578.248 173.154 578.248C171.842 578.248 170.594 578.472 169.41 578.92C168.258 579.368 167.25 580.008 166.386 580.84C165.522 581.64 164.85 582.6 164.37 583.72C164.402 580.904 164.77 578.504 165.474 576.52C166.21 574.536 167.234 573.016 168.546 571.96C169.858 570.904 171.378 570.376 173.106 570.376C174.802 570.376 176.338 570.824 177.714 571.72C179.09 572.584 180.13 573.768 180.834 575.272L183.426 572.728C182.402 570.84 180.978 569.368 179.154 568.312C177.362 567.224 175.362 566.68 173.154 566.68C170.594 566.68 168.354 567.432 166.434 568.936C164.514 570.408 163.026 572.632 161.97 575.608C160.914 578.584 160.386 582.312 160.386 586.792C160.386 589.832 160.898 592.456 161.922 594.664C162.978 596.872 164.434 598.568 166.29 599.752C168.146 600.904 170.29 601.48 172.722 601.48C175.026 601.48 177.09 600.952 178.914 599.896C180.77 598.84 182.226 597.432 183.281 595.672C184.37 593.88 184.914 591.896 184.914 589.72ZM172.77 597.832C171.298 597.832 169.938 597.464 168.69 596.728C167.474 595.992 166.498 595.016 165.762 593.8C165.026 592.552 164.658 591.192 164.658 589.72C164.658 588.248 165.026 586.904 165.762 585.688C166.498 584.472 167.474 583.496 168.69 582.76C169.938 582.024 171.298 581.656 172.77 581.656C174.242 581.656 175.586 582.024 176.802 582.76C178.05 583.496 179.042 584.472 179.778 585.688C180.514 586.904 180.882 588.248 180.882 589.72C180.882 591.192 180.514 592.552 179.778 593.8C179.042 595.016 178.05 595.992 176.802 596.728C175.586 597.464 174.242 597.832 172.77 597.832ZM199.623 608.152C197.191 608.152 194.999 607.576 193.047 606.424C191.095 605.272 189.623 603.736 188.631 601.816L191.271 599.512C192.167 600.984 193.351 602.168 194.823 603.064C196.327 603.96 197.943 604.408 199.671 604.408C201.143 604.408 202.455 604.088 203.607 603.448C204.759 602.808 205.671 601.928 206.343 600.808C207.015 599.656 207.351 598.344 207.351 596.872C207.351 595.432 207.015 594.168 206.343 593.08C205.703 591.992 204.823 591.144 203.703 590.536C202.615 589.928 201.383 589.624 200.007 589.624C198.631 589.624 197.335 589.928 196.119 590.536C194.935 591.144 193.959 592.008 193.191 593.128H189.399L193.239 573.592H209.799V577.48H196.359L194.295 588.328C194.999 587.592 195.879 587.016 196.935 586.6C198.023 586.152 199.223 585.928 200.535 585.928C202.647 585.928 204.535 586.392 206.199 587.32C207.895 588.248 209.223 589.528 210.183 591.16C211.175 592.792 211.671 594.68 211.671 596.824C211.671 599.064 211.127 601.032 210.039 602.728C208.983 604.456 207.543 605.784 205.719 606.712C203.895 607.672 201.863 608.152 199.623 608.152ZM240.224 586.936C240.224 589.752 239.696 592.264 238.64 594.472C237.584 596.648 236.144 598.36 234.32 599.608C232.496 600.856 230.416 601.48 228.08 601.48C225.744 601.48 223.664 600.856 221.84 599.608C220.016 598.36 218.576 596.648 217.52 594.472C216.464 592.264 215.936 589.752 215.936 586.936C215.936 584.12 216.464 581.624 217.52 579.448C218.576 577.24 220.016 575.512 221.84 574.264C223.664 572.984 225.744 572.344 228.08 572.344C230.416 572.344 232.496 572.984 234.32 574.264C236.144 575.512 237.584 577.24 238.64 579.448C239.696 581.624 240.224 584.12 240.224 586.936ZM235.952 586.936C235.952 584.824 235.616 582.968 234.944 581.368C234.272 579.768 233.344 578.52 232.16 577.624C230.976 576.728 229.616 576.28 228.08 576.28C226.512 576.28 225.136 576.728 223.952 577.624C222.768 578.52 221.84 579.768 221.168 581.368C220.496 582.968 220.16 584.824 220.16 586.936C220.16 589.048 220.496 590.904 221.168 592.504C221.84 594.072 222.768 595.304 223.952 596.2C225.136 597.096 226.512 597.544 228.08 597.544C229.616 597.544 230.976 597.096 232.16 596.2C233.344 595.304 234.272 594.072 234.944 592.504C235.616 590.904 235.952 589.048 235.952 586.936Z" fill="#24B685"/>
<g filter="url(#filter3_dii_10_319)">
<rect x="39" y="185" width="296" height="296" rx="25" fill="#001E26"/>
</g>
<rect x="62" y="403" width="55" height="55" rx="10" fill="#24B685"/>
<path d="M96.3828 438.188V441H82.0859V438.583L89.0293 431.01C89.791 430.15 90.3916 429.408 90.8311 428.783C91.2705 428.158 91.5781 427.597 91.7539 427.099C91.9395 426.591 92.0322 426.098 92.0322 425.619C92.0322 424.945 91.9053 424.354 91.6514 423.847C91.4072 423.329 91.0459 422.924 90.5674 422.631C90.0889 422.328 89.5078 422.177 88.8242 422.177C88.0332 422.177 87.3691 422.348 86.832 422.689C86.2949 423.031 85.8896 423.505 85.6162 424.11C85.3428 424.706 85.2061 425.39 85.2061 426.161H81.6758C81.6758 424.921 81.959 423.788 82.5254 422.763C83.0918 421.728 83.9121 420.907 84.9863 420.302C86.0605 419.687 87.3545 419.379 88.8682 419.379C90.2939 419.379 91.5049 419.618 92.501 420.097C93.4971 420.575 94.2539 421.254 94.7715 422.133C95.2988 423.012 95.5625 424.052 95.5625 425.253C95.5625 425.917 95.4551 426.576 95.2402 427.23C95.0254 427.885 94.7178 428.539 94.3174 429.193C93.9268 429.838 93.4629 430.487 92.9258 431.142C92.3887 431.786 91.7979 432.44 91.1533 433.104L86.5391 438.188H96.3828Z" fill="white"/>
<rect x="127" y="403" width="55" height="55" rx="10" fill="#021A20"/>
<rect x="192" y="403" width="55" height="55" rx="10" fill="#021A20"/>
<rect x="257" y="403" width="55" height="55" rx="10" fill="#24B685"/>
<path d="M291.412 441H277.071V438.554L284.176 430.805C285.201 429.662 285.929 428.71 286.358 427.948C286.798 427.177 287.018 426.405 287.018 425.634C287.018 424.618 286.729 423.798 286.153 423.173C285.587 422.548 284.82 422.235 283.854 422.235C282.701 422.235 281.808 422.587 281.173 423.29C280.538 423.993 280.221 424.955 280.221 426.176H276.661C276.661 424.877 276.954 423.71 277.54 422.675C278.136 421.63 278.98 420.819 280.074 420.243C281.178 419.667 282.447 419.379 283.883 419.379C285.953 419.379 287.584 419.901 288.775 420.946C289.977 421.981 290.577 423.417 290.577 425.253C290.577 426.317 290.274 427.436 289.669 428.607C289.073 429.77 288.092 431.093 286.725 432.577L281.51 438.158H291.412V441Z" fill="white"/>
<rect x="62" y="338" width="55" height="55" rx="10" fill="#779A65"/>
<path d="M83.6992 354.599V376H80.1689V358.788L74.9395 360.561V357.646L83.2744 354.599H83.6992ZM101.775 354.54H102.215V357.426H101.966C100.706 357.426 99.6172 357.621 98.6992 358.012C97.791 358.402 97.0439 358.939 96.458 359.623C95.8721 360.307 95.4326 361.107 95.1396 362.025C94.8564 362.934 94.7148 363.9 94.7148 364.926V368.28C94.7148 369.13 94.8076 369.882 94.9932 370.536C95.1787 371.181 95.4375 371.723 95.7695 372.162C96.1113 372.592 96.502 372.919 96.9414 373.144C97.3809 373.368 97.8545 373.48 98.3623 373.48C98.8896 373.48 99.3682 373.373 99.7979 373.158C100.228 372.934 100.594 372.626 100.896 372.235C101.199 371.845 101.429 371.381 101.585 370.844C101.741 370.307 101.819 369.721 101.819 369.086C101.819 368.48 101.741 367.914 101.585 367.387C101.438 366.85 101.219 366.381 100.926 365.98C100.633 365.57 100.267 365.253 99.8271 365.028C99.3975 364.794 98.8994 364.677 98.333 364.677C97.6299 364.677 96.9902 364.843 96.4141 365.175C95.8477 365.507 95.3887 365.941 95.0371 366.479C94.6953 367.006 94.5098 367.567 94.4805 368.163L93.1328 367.724C93.2109 366.815 93.4111 366 93.7334 365.277C94.0654 364.555 94.5 363.939 95.0371 363.432C95.5742 362.924 96.1943 362.538 96.8975 362.274C97.6104 362.001 98.3916 361.864 99.2412 361.864C100.276 361.864 101.175 362.06 101.937 362.45C102.698 362.841 103.328 363.373 103.826 364.047C104.334 364.711 104.71 365.473 104.954 366.332C105.208 367.182 105.335 368.07 105.335 368.998C105.335 370.023 105.179 370.98 104.866 371.869C104.554 372.748 104.095 373.52 103.489 374.184C102.894 374.848 102.166 375.365 101.307 375.736C100.457 376.107 99.4902 376.293 98.4062 376.293C97.2637 376.293 96.2432 376.073 95.3447 375.634C94.4561 375.194 93.6992 374.589 93.0742 373.817C92.459 373.046 91.9902 372.157 91.668 371.151C91.3457 370.146 91.1846 369.081 91.1846 367.958V366.493C91.1846 364.872 91.3896 363.344 91.7998 361.908C92.21 360.463 92.8398 359.188 93.6895 358.085C94.5488 356.981 95.6475 356.117 96.9854 355.492C98.3232 354.857 99.9199 354.54 101.775 354.54Z" fill="white"/>
<rect x="127" y="338" width="55" height="55" rx="10" fill="#779A65"/>
<path d="M148.699 354.599V376H145.169V358.788L139.939 360.561V357.646L148.274 354.599H148.699ZM166.775 354.54H167.215V357.426H166.966C165.706 357.426 164.617 357.621 163.699 358.012C162.791 358.402 162.044 358.939 161.458 359.623C160.872 360.307 160.433 361.107 160.14 362.025C159.856 362.934 159.715 363.9 159.715 364.926V368.28C159.715 369.13 159.808 369.882 159.993 370.536C160.179 371.181 160.438 371.723 160.77 372.162C161.111 372.592 161.502 372.919 161.941 373.144C162.381 373.368 162.854 373.48 163.362 373.48C163.89 373.48 164.368 373.373 164.798 373.158C165.228 372.934 165.594 372.626 165.896 372.235C166.199 371.845 166.429 371.381 166.585 370.844C166.741 370.307 166.819 369.721 166.819 369.086C166.819 368.48 166.741 367.914 166.585 367.387C166.438 366.85 166.219 366.381 165.926 365.98C165.633 365.57 165.267 365.253 164.827 365.028C164.397 364.794 163.899 364.677 163.333 364.677C162.63 364.677 161.99 364.843 161.414 365.175C160.848 365.507 160.389 365.941 160.037 366.479C159.695 367.006 159.51 367.567 159.48 368.163L158.133 367.724C158.211 366.815 158.411 366 158.733 365.277C159.065 364.555 159.5 363.939 160.037 363.432C160.574 362.924 161.194 362.538 161.897 362.274C162.61 362.001 163.392 361.864 164.241 361.864C165.276 361.864 166.175 362.06 166.937 362.45C167.698 362.841 168.328 363.373 168.826 364.047C169.334 364.711 169.71 365.473 169.954 366.332C170.208 367.182 170.335 368.07 170.335 368.998C170.335 370.023 170.179 370.98 169.866 371.869C169.554 372.748 169.095 373.52 168.489 374.184C167.894 374.848 167.166 375.365 166.307 375.736C165.457 376.107 164.49 376.293 163.406 376.293C162.264 376.293 161.243 376.073 160.345 375.634C159.456 375.194 158.699 374.589 158.074 373.817C157.459 373.046 156.99 372.157 156.668 371.151C156.346 370.146 156.185 369.081 156.185 367.958V366.493C156.185 364.872 156.39 363.344 156.8 361.908C157.21 360.463 157.84 359.188 158.689 358.085C159.549 356.981 160.647 356.117 161.985 355.492C163.323 354.857 164.92 354.54 166.775 354.54Z" fill="white"/>
<rect x="192" y="338" width="55" height="55" rx="10" fill="#24B685"/>
<path d="M226.383 373.188V376H212.086V373.583L219.029 366.01C219.791 365.15 220.392 364.408 220.831 363.783C221.271 363.158 221.578 362.597 221.754 362.099C221.939 361.591 222.032 361.098 222.032 360.619C222.032 359.945 221.905 359.354 221.651 358.847C221.407 358.329 221.046 357.924 220.567 357.631C220.089 357.328 219.508 357.177 218.824 357.177C218.033 357.177 217.369 357.348 216.832 357.689C216.295 358.031 215.89 358.505 215.616 359.11C215.343 359.706 215.206 360.39 215.206 361.161H211.676C211.676 359.921 211.959 358.788 212.525 357.763C213.092 356.728 213.912 355.907 214.986 355.302C216.061 354.687 217.354 354.379 218.868 354.379C220.294 354.379 221.505 354.618 222.501 355.097C223.497 355.575 224.254 356.254 224.771 357.133C225.299 358.012 225.562 359.052 225.562 360.253C225.562 360.917 225.455 361.576 225.24 362.23C225.025 362.885 224.718 363.539 224.317 364.193C223.927 364.838 223.463 365.487 222.926 366.142C222.389 366.786 221.798 367.44 221.153 368.104L216.539 373.188H226.383Z" fill="white"/>
<rect x="257" y="338" width="55" height="55" rx="10" fill="#021A20"/>
<rect x="62" y="273" width="55" height="55" rx="10" fill="#A5572B"/>
<path d="M71.9424 301.405L69.5049 300.809L70.5078 291.516H80.4736V294.105H73.0469L72.5391 298.638C72.8268 298.468 73.2246 298.303 73.7324 298.143C74.2402 297.973 74.82 297.889 75.4717 297.889C76.3434 297.889 77.1221 298.033 77.8076 298.32C78.5016 298.6 79.0898 299.01 79.5723 299.552C80.0547 300.085 80.4229 300.737 80.6768 301.507C80.9307 302.269 81.0576 303.128 81.0576 304.084C81.0576 304.939 80.9307 305.739 80.6768 306.483C80.4313 307.228 80.0589 307.884 79.5596 308.451C79.0602 309.018 78.4297 309.463 77.668 309.784C76.9147 310.097 76.0218 310.254 74.9893 310.254C74.2191 310.254 73.4785 310.144 72.7676 309.924C72.0651 309.695 71.4346 309.361 70.876 308.921C70.3174 308.472 69.8688 307.922 69.5303 307.271C69.1917 306.61 68.9971 305.853 68.9463 304.998H71.9424C72.0186 305.599 72.1836 306.111 72.4375 306.534C72.6999 306.949 73.0469 307.266 73.4785 307.486C73.9102 307.706 74.4095 307.816 74.9766 307.816C75.4928 307.816 75.9372 307.728 76.3096 307.55C76.682 307.364 76.9909 307.101 77.2363 306.763C77.4902 306.416 77.6764 306.009 77.7949 305.544C77.9219 305.078 77.9854 304.562 77.9854 303.995C77.9854 303.453 77.9134 302.958 77.7695 302.51C77.6341 302.061 77.4268 301.672 77.1475 301.342C76.8766 301.012 76.5339 300.758 76.1191 300.58C75.7044 300.394 75.2262 300.301 74.6846 300.301C73.9567 300.301 73.3981 300.407 73.0088 300.618C72.6279 300.83 72.2725 301.092 71.9424 301.405ZM91.8613 291.452V310H88.8018V295.083L84.2695 296.619V294.093L91.4932 291.452H91.8613ZM110.676 307.562V310H98.2852V307.905L104.303 301.342C104.963 300.597 105.483 299.954 105.864 299.412C106.245 298.87 106.512 298.384 106.664 297.952C106.825 297.512 106.905 297.085 106.905 296.67C106.905 296.086 106.795 295.574 106.575 295.134C106.364 294.685 106.05 294.334 105.636 294.08C105.221 293.818 104.717 293.687 104.125 293.687C103.439 293.687 102.864 293.835 102.398 294.131C101.933 294.427 101.582 294.838 101.345 295.362C101.108 295.879 100.989 296.471 100.989 297.14H97.9297C97.9297 296.065 98.1751 295.083 98.666 294.194C99.1569 293.297 99.8678 292.586 100.799 292.062C101.73 291.528 102.851 291.262 104.163 291.262C105.399 291.262 106.448 291.469 107.312 291.884C108.175 292.299 108.831 292.887 109.279 293.648C109.736 294.41 109.965 295.312 109.965 296.353C109.965 296.928 109.872 297.499 109.686 298.066C109.499 298.633 109.233 299.201 108.886 299.768C108.547 300.326 108.145 300.889 107.68 301.456C107.214 302.015 106.702 302.582 106.144 303.157L102.145 307.562H110.676Z" fill="white"/>
<rect x="127" y="273" width="55" height="55" rx="10" fill="#9B713D"/>
<path d="M142.084 291.452V310H139.024V295.083L134.492 296.619V294.093L141.716 291.452H142.084ZM160.898 307.562V310H148.508V307.905L154.525 301.342C155.186 300.597 155.706 299.954 156.087 299.412C156.468 298.87 156.734 298.384 156.887 297.952C157.048 297.512 157.128 297.085 157.128 296.67C157.128 296.086 157.018 295.574 156.798 295.134C156.586 294.685 156.273 294.334 155.858 294.08C155.444 293.818 154.94 293.687 154.348 293.687C153.662 293.687 153.087 293.835 152.621 294.131C152.156 294.427 151.804 294.838 151.567 295.362C151.33 295.879 151.212 296.471 151.212 297.14H148.152C148.152 296.065 148.398 295.083 148.889 294.194C149.38 293.297 150.09 292.586 151.021 292.062C151.952 291.528 153.074 291.262 154.386 291.262C155.621 291.262 156.671 291.469 157.534 291.884C158.397 292.299 159.053 292.887 159.502 293.648C159.959 294.41 160.188 295.312 160.188 296.353C160.188 296.928 160.094 297.499 159.908 298.066C159.722 298.633 159.455 299.201 159.108 299.768C158.77 300.326 158.368 300.889 157.902 301.456C157.437 302.015 156.925 302.582 156.366 303.157L152.367 307.562H160.898ZM175.371 304.96C175.371 306.111 175.104 307.08 174.571 307.867C174.038 308.654 173.31 309.251 172.388 309.657C171.474 310.055 170.441 310.254 169.29 310.254C168.139 310.254 167.102 310.055 166.18 309.657C165.257 309.251 164.529 308.654 163.996 307.867C163.463 307.08 163.196 306.111 163.196 304.96C163.196 304.198 163.344 303.508 163.641 302.891C163.937 302.264 164.356 301.727 164.897 301.278C165.448 300.821 166.091 300.47 166.827 300.225C167.572 299.979 168.384 299.856 169.265 299.856C170.433 299.856 171.478 300.072 172.4 300.504C173.323 300.936 174.047 301.532 174.571 302.294C175.104 303.056 175.371 303.944 175.371 304.96ZM172.299 304.808C172.299 304.19 172.172 303.648 171.918 303.183C171.664 302.717 171.309 302.357 170.852 302.104C170.395 301.85 169.866 301.723 169.265 301.723C168.655 301.723 168.126 301.85 167.678 302.104C167.229 302.357 166.878 302.717 166.624 303.183C166.379 303.648 166.256 304.19 166.256 304.808C166.256 305.434 166.379 305.976 166.624 306.433C166.869 306.881 167.221 307.224 167.678 307.461C168.135 307.698 168.672 307.816 169.29 307.816C169.908 307.816 170.441 307.698 170.89 307.461C171.338 307.224 171.685 306.881 171.931 306.433C172.176 305.976 172.299 305.434 172.299 304.808ZM174.952 296.378C174.952 297.3 174.707 298.121 174.216 298.841C173.733 299.56 173.065 300.127 172.21 300.542C171.355 300.948 170.382 301.151 169.29 301.151C168.19 301.151 167.208 300.948 166.345 300.542C165.49 300.127 164.817 299.56 164.326 298.841C163.844 298.121 163.603 297.3 163.603 296.378C163.603 295.278 163.844 294.351 164.326 293.598C164.817 292.836 165.49 292.256 166.345 291.858C167.2 291.461 168.177 291.262 169.277 291.262C170.378 291.262 171.355 291.461 172.21 291.858C173.065 292.256 173.733 292.836 174.216 293.598C174.707 294.351 174.952 295.278 174.952 296.378ZM171.893 296.479C171.893 295.929 171.783 295.447 171.562 295.032C171.351 294.609 171.05 294.279 170.661 294.042C170.272 293.805 169.811 293.687 169.277 293.687C168.744 293.687 168.283 293.801 167.894 294.029C167.504 294.258 167.204 294.579 166.992 294.994C166.781 295.409 166.675 295.904 166.675 296.479C166.675 297.047 166.781 297.542 166.992 297.965C167.204 298.38 167.504 298.705 167.894 298.942C168.291 299.179 168.757 299.298 169.29 299.298C169.823 299.298 170.285 299.179 170.674 298.942C171.063 298.705 171.364 298.38 171.575 297.965C171.787 297.542 171.893 297.047 171.893 296.479Z" fill="white"/>
<rect x="192" y="273" width="55" height="55" rx="10" fill="#779A65"/>
<path d="M213.699 289.599V311H210.169V293.788L204.939 295.561V292.646L213.274 289.599H213.699ZM231.775 289.54H232.215V292.426H231.966C230.706 292.426 229.617 292.621 228.699 293.012C227.791 293.402 227.044 293.939 226.458 294.623C225.872 295.307 225.433 296.107 225.14 297.025C224.856 297.934 224.715 298.9 224.715 299.926V303.28C224.715 304.13 224.808 304.882 224.993 305.536C225.179 306.181 225.438 306.723 225.77 307.162C226.111 307.592 226.502 307.919 226.941 308.144C227.381 308.368 227.854 308.48 228.362 308.48C228.89 308.48 229.368 308.373 229.798 308.158C230.228 307.934 230.594 307.626 230.896 307.235C231.199 306.845 231.429 306.381 231.585 305.844C231.741 305.307 231.819 304.721 231.819 304.086C231.819 303.48 231.741 302.914 231.585 302.387C231.438 301.85 231.219 301.381 230.926 300.98C230.633 300.57 230.267 300.253 229.827 300.028C229.397 299.794 228.899 299.677 228.333 299.677C227.63 299.677 226.99 299.843 226.414 300.175C225.848 300.507 225.389 300.941 225.037 301.479C224.695 302.006 224.51 302.567 224.48 303.163L223.133 302.724C223.211 301.815 223.411 301 223.733 300.277C224.065 299.555 224.5 298.939 225.037 298.432C225.574 297.924 226.194 297.538 226.897 297.274C227.61 297.001 228.392 296.864 229.241 296.864C230.276 296.864 231.175 297.06 231.937 297.45C232.698 297.841 233.328 298.373 233.826 299.047C234.334 299.711 234.71 300.473 234.954 301.332C235.208 302.182 235.335 303.07 235.335 303.998C235.335 305.023 235.179 305.98 234.866 306.869C234.554 307.748 234.095 308.52 233.489 309.184C232.894 309.848 232.166 310.365 231.307 310.736C230.457 311.107 229.49 311.293 228.406 311.293C227.264 311.293 226.243 311.073 225.345 310.634C224.456 310.194 223.699 309.589 223.074 308.817C222.459 308.046 221.99 307.157 221.668 306.151C221.346 305.146 221.185 304.081 221.185 302.958V301.493C221.185 299.872 221.39 298.344 221.8 296.908C222.21 295.463 222.84 294.188 223.689 293.085C224.549 291.981 225.647 291.117 226.985 290.492C228.323 289.857 229.92 289.54 231.775 289.54Z" fill="white"/>
<rect x="257" y="273" width="55" height="55" rx="10" fill="#24B685"/>
<path d="M291.383 308.188V311H277.086V308.583L284.029 301.01C284.791 300.15 285.392 299.408 285.831 298.783C286.271 298.158 286.578 297.597 286.754 297.099C286.939 296.591 287.032 296.098 287.032 295.619C287.032 294.945 286.905 294.354 286.651 293.847C286.407 293.329 286.046 292.924 285.567 292.631C285.089 292.328 284.508 292.177 283.824 292.177C283.033 292.177 282.369 292.348 281.832 292.689C281.295 293.031 280.89 293.505 280.616 294.11C280.343 294.706 280.206 295.39 280.206 296.161H276.676C276.676 294.921 276.959 293.788 277.525 292.763C278.092 291.728 278.912 290.907 279.986 290.302C281.061 289.687 282.354 289.379 283.868 289.379C285.294 289.379 286.505 289.618 287.501 290.097C288.497 290.575 289.254 291.254 289.771 292.133C290.299 293.012 290.562 294.052 290.562 295.253C290.562 295.917 290.455 296.576 290.24 297.23C290.025 297.885 289.718 298.539 289.317 299.193C288.927 299.838 288.463 300.487 287.926 301.142C287.389 301.786 286.798 302.44 286.153 303.104L281.539 308.188H291.383Z" fill="white"/>
<rect x="62" y="208" width="55" height="55" rx="10" fill="#AB391D"/>
<path d="M76.8711 240.125V242H67.3398V240.389L71.9688 235.34C72.4766 234.767 72.877 234.272 73.1699 233.855C73.4629 233.439 73.668 233.064 73.7852 232.732C73.9089 232.394 73.9707 232.065 73.9707 231.746C73.9707 231.297 73.8861 230.903 73.7168 230.564C73.554 230.219 73.3132 229.949 72.9941 229.754C72.6751 229.552 72.2878 229.451 71.832 229.451C71.3047 229.451 70.862 229.565 70.5039 229.793C70.1458 230.021 69.8757 230.337 69.6934 230.74C69.5111 231.137 69.4199 231.593 69.4199 232.107H67.0664C67.0664 231.281 67.2552 230.525 67.6328 229.842C68.0104 229.152 68.5573 228.605 69.2734 228.201C69.9896 227.791 70.8522 227.586 71.8613 227.586C72.8118 227.586 73.6191 227.745 74.2832 228.064C74.9473 228.383 75.4518 228.836 75.7969 229.422C76.1484 230.008 76.3242 230.701 76.3242 231.502C76.3242 231.945 76.2526 232.384 76.1094 232.82C75.9661 233.257 75.7611 233.693 75.4941 234.129C75.2337 234.559 74.9245 234.992 74.5664 235.428C74.2083 235.857 73.8145 236.294 73.3848 236.736L70.3086 240.125H76.8711ZM87.9746 233.699V236.023C87.9746 237.137 87.8639 238.087 87.6426 238.875C87.4277 239.656 87.1152 240.291 86.7051 240.779C86.2949 241.268 85.8034 241.626 85.2305 241.854C84.6641 242.081 84.0293 242.195 83.3262 242.195C82.7663 242.195 82.2454 242.124 81.7637 241.98C81.2884 241.837 80.8587 241.613 80.4746 241.307C80.0905 241.001 79.7617 240.607 79.4883 240.125C79.2214 239.637 79.013 239.054 78.8633 238.377C78.7201 237.7 78.6484 236.915 78.6484 236.023V233.699C78.6484 232.579 78.7591 231.635 78.9805 230.867C79.2018 230.092 79.5176 229.464 79.9277 228.982C80.3379 228.494 80.8262 228.139 81.3926 227.918C81.9655 227.697 82.6035 227.586 83.3066 227.586C83.873 227.586 84.3939 227.658 84.8691 227.801C85.3509 227.938 85.7806 228.156 86.1582 228.455C86.5423 228.755 86.8678 229.145 87.1348 229.627C87.4082 230.102 87.6165 230.678 87.7598 231.355C87.903 232.026 87.9746 232.807 87.9746 233.699ZM85.6211 236.355V233.348C85.6211 232.781 85.5885 232.283 85.5234 231.854C85.4583 231.417 85.3607 231.049 85.2305 230.75C85.1068 230.444 84.9505 230.197 84.7617 230.008C84.5729 229.812 84.3581 229.673 84.1172 229.588C83.8763 229.497 83.6061 229.451 83.3066 229.451C82.9421 229.451 82.6165 229.523 82.3301 229.666C82.0436 229.803 81.8027 230.024 81.6074 230.33C81.4121 230.636 81.2624 231.04 81.1582 231.541C81.0605 232.036 81.0117 232.638 81.0117 233.348V236.355C81.0117 236.928 81.0443 237.433 81.1094 237.869C81.1745 238.305 81.2721 238.68 81.4023 238.992C81.5326 239.298 81.6888 239.552 81.8711 239.754C82.0599 239.949 82.2747 240.092 82.5156 240.184C82.763 240.275 83.0332 240.32 83.3262 240.32C83.6973 240.32 84.026 240.249 84.3125 240.105C84.599 239.962 84.8398 239.734 85.0352 239.422C85.2305 239.103 85.377 238.689 85.4746 238.182C85.5723 237.674 85.6211 237.065 85.6211 236.355ZM99.8691 236.932V238.807H89.6152L89.5371 237.391L95.6699 227.781H97.5547L95.5137 231.277L91.9883 236.932H99.8691ZM98.0918 227.781V242H95.7383V227.781H98.0918ZM110.738 238.123C110.738 239.008 110.533 239.754 110.123 240.359C109.713 240.965 109.153 241.424 108.443 241.736C107.74 242.042 106.946 242.195 106.061 242.195C105.175 242.195 104.378 242.042 103.668 241.736C102.958 241.424 102.398 240.965 101.988 240.359C101.578 239.754 101.373 239.008 101.373 238.123C101.373 237.537 101.487 237.007 101.715 236.531C101.943 236.049 102.265 235.636 102.682 235.291C103.105 234.939 103.6 234.669 104.166 234.48C104.739 234.292 105.364 234.197 106.041 234.197C106.939 234.197 107.743 234.363 108.453 234.695C109.163 235.027 109.719 235.486 110.123 236.072C110.533 236.658 110.738 237.342 110.738 238.123ZM108.375 238.006C108.375 237.531 108.277 237.114 108.082 236.756C107.887 236.398 107.613 236.121 107.262 235.926C106.91 235.73 106.503 235.633 106.041 235.633C105.572 235.633 105.165 235.73 104.82 235.926C104.475 236.121 104.205 236.398 104.01 236.756C103.821 237.114 103.727 237.531 103.727 238.006C103.727 238.488 103.821 238.904 104.01 239.256C104.199 239.601 104.469 239.865 104.82 240.047C105.172 240.229 105.585 240.32 106.061 240.32C106.536 240.32 106.946 240.229 107.291 240.047C107.636 239.865 107.903 239.601 108.092 239.256C108.281 238.904 108.375 238.488 108.375 238.006ZM110.416 231.521C110.416 232.231 110.227 232.863 109.85 233.416C109.479 233.969 108.964 234.406 108.307 234.725C107.649 235.037 106.9 235.193 106.061 235.193C105.214 235.193 104.459 235.037 103.795 234.725C103.137 234.406 102.62 233.969 102.242 233.416C101.871 232.863 101.686 232.231 101.686 231.521C101.686 230.675 101.871 229.962 102.242 229.383C102.62 228.797 103.137 228.351 103.795 228.045C104.452 227.739 105.204 227.586 106.051 227.586C106.897 227.586 107.649 227.739 108.307 228.045C108.964 228.351 109.479 228.797 109.85 229.383C110.227 229.962 110.416 230.675 110.416 231.521ZM108.062 231.6C108.062 231.176 107.978 230.805 107.809 230.486C107.646 230.161 107.415 229.907 107.115 229.725C106.816 229.542 106.461 229.451 106.051 229.451C105.641 229.451 105.286 229.539 104.986 229.715C104.687 229.891 104.456 230.138 104.293 230.457C104.13 230.776 104.049 231.157 104.049 231.6C104.049 232.036 104.13 232.417 104.293 232.742C104.456 233.061 104.687 233.312 104.986 233.494C105.292 233.676 105.65 233.768 106.061 233.768C106.471 233.768 106.826 233.676 107.125 233.494C107.424 233.312 107.656 233.061 107.818 232.742C107.981 232.417 108.062 232.036 108.062 231.6Z" fill="white"/>
<rect x="127" y="208" width="55" height="55" rx="10" fill="#947C46"/>
<path d="M149.725 224.54H150.164V227.426H149.915C148.655 227.426 147.566 227.621 146.648 228.012C145.74 228.402 144.993 228.939 144.407 229.623C143.821 230.307 143.382 231.107 143.089 232.025C142.806 232.934 142.664 233.9 142.664 234.926V238.28C142.664 239.13 142.757 239.882 142.942 240.536C143.128 241.181 143.387 241.723 143.719 242.162C144.061 242.592 144.451 242.919 144.891 243.144C145.33 243.368 145.804 243.48 146.312 243.48C146.839 243.48 147.317 243.373 147.747 243.158C148.177 242.934 148.543 242.626 148.846 242.235C149.148 241.845 149.378 241.381 149.534 240.844C149.69 240.307 149.769 239.721 149.769 239.086C149.769 238.48 149.69 237.914 149.534 237.387C149.388 236.85 149.168 236.381 148.875 235.98C148.582 235.57 148.216 235.253 147.776 235.028C147.347 234.794 146.849 234.677 146.282 234.677C145.579 234.677 144.939 234.843 144.363 235.175C143.797 235.507 143.338 235.941 142.986 236.479C142.645 237.006 142.459 237.567 142.43 238.163L141.082 237.724C141.16 236.815 141.36 236 141.683 235.277C142.015 234.555 142.449 233.939 142.986 233.432C143.523 232.924 144.144 232.538 144.847 232.274C145.56 232.001 146.341 231.864 147.19 231.864C148.226 231.864 149.124 232.06 149.886 232.45C150.647 232.841 151.277 233.373 151.775 234.047C152.283 234.711 152.659 235.473 152.903 236.332C153.157 237.182 153.284 238.07 153.284 238.998C153.284 240.023 153.128 240.98 152.815 241.869C152.503 242.748 152.044 243.52 151.438 244.184C150.843 244.848 150.115 245.365 149.256 245.736C148.406 246.107 147.439 246.293 146.355 246.293C145.213 246.293 144.192 246.073 143.294 245.634C142.405 245.194 141.648 244.589 141.023 243.817C140.408 243.046 139.939 242.157 139.617 241.151C139.295 240.146 139.134 239.081 139.134 237.958V236.493C139.134 234.872 139.339 233.344 139.749 231.908C140.159 230.463 140.789 229.188 141.639 228.085C142.498 226.981 143.597 226.117 144.935 225.492C146.272 224.857 147.869 224.54 149.725 224.54ZM170.804 238.397V241.21H155.423L155.306 239.086L164.505 224.672H167.332L164.271 229.916L158.982 238.397H170.804ZM168.138 224.672V246H164.607V224.672H168.138Z" fill="white"/>
<rect x="192" y="208" width="55" height="55" rx="10" fill="#66A26F"/>
<path d="M226.031 240.185C226.031 241.513 225.724 242.631 225.108 243.539C224.493 244.447 223.653 245.136 222.589 245.604C221.534 246.063 220.343 246.293 219.015 246.293C217.687 246.293 216.49 246.063 215.426 245.604C214.361 245.136 213.521 244.447 212.906 243.539C212.291 242.631 211.983 241.513 211.983 240.185C211.983 239.306 212.154 238.51 212.496 237.797C212.838 237.074 213.321 236.454 213.946 235.937C214.581 235.409 215.323 235.004 216.173 234.721C217.032 234.438 217.97 234.296 218.985 234.296C220.333 234.296 221.539 234.545 222.604 235.043C223.668 235.541 224.503 236.229 225.108 237.108C225.724 237.987 226.031 239.013 226.031 240.185ZM222.486 240.009C222.486 239.296 222.34 238.671 222.047 238.134C221.754 237.597 221.344 237.182 220.816 236.889C220.289 236.596 219.679 236.449 218.985 236.449C218.282 236.449 217.672 236.596 217.154 236.889C216.637 237.182 216.231 237.597 215.938 238.134C215.655 238.671 215.514 239.296 215.514 240.009C215.514 240.731 215.655 241.356 215.938 241.884C216.222 242.401 216.627 242.797 217.154 243.07C217.682 243.344 218.302 243.48 219.015 243.48C219.728 243.48 220.343 243.344 220.86 243.07C221.378 242.797 221.778 242.401 222.062 241.884C222.345 241.356 222.486 240.731 222.486 240.009ZM225.548 230.282C225.548 231.347 225.265 232.294 224.698 233.124C224.142 233.954 223.37 234.608 222.384 235.087C221.397 235.556 220.274 235.79 219.015 235.79C217.745 235.79 216.612 235.556 215.616 235.087C214.63 234.608 213.854 233.954 213.287 233.124C212.73 232.294 212.452 231.347 212.452 230.282C212.452 229.013 212.73 227.943 213.287 227.074C213.854 226.195 214.63 225.526 215.616 225.067C216.603 224.608 217.73 224.379 219 224.379C220.27 224.379 221.397 224.608 222.384 225.067C223.37 225.526 224.142 226.195 224.698 227.074C225.265 227.943 225.548 229.013 225.548 230.282ZM222.018 230.399C222.018 229.765 221.891 229.208 221.637 228.729C221.393 228.241 221.046 227.86 220.597 227.587C220.147 227.313 219.615 227.177 219 227.177C218.385 227.177 217.853 227.309 217.403 227.572C216.954 227.836 216.607 228.207 216.363 228.686C216.119 229.164 215.997 229.735 215.997 230.399C215.997 231.054 216.119 231.625 216.363 232.113C216.607 232.592 216.954 232.968 217.403 233.241C217.862 233.515 218.399 233.651 219.015 233.651C219.63 233.651 220.162 233.515 220.611 233.241C221.061 232.968 221.407 232.592 221.651 232.113C221.896 231.625 222.018 231.054 222.018 230.399Z" fill="white"/>
<rect x="257" y="208" width="55" height="55" rx="10" fill="#50AA79"/>
<path d="M291.778 238.397V241.21H276.397L276.28 239.086L285.479 224.672H288.307L285.245 229.916L279.957 238.397H291.778ZM289.112 224.672V246H285.582V224.672H289.112Z" fill="white"/>
<defs>
<filter id="filter0_dii_10_319" x="10.2272" y="30.3921" width="340.667" height="107.667" filterUnits="userSpaceOnUse" color-interpolation-filters="sRGB">
<feFlood flood-opacity="0" result="BackgroundImageFix"/>
<feColorMatrix in="SourceAlpha" type="matrix" values="0 0 0 0 0 0 0 0 0 0 0 0 0 0 0 0 0 0 127 0" result="hardAlpha"/>
<feOffset dx="-6.43951" dy="1.72546"/>
<feGaussianBlur stdDeviation="6.66667"/>
<feColorMatrix type="matrix" values="0 0 0 0 0.00156863 0 0 0 0 0.0329412 0 0 0 0 0.0407843 0 0 0 0.4115 0"/>
<feBlend mode="normal" in2="BackgroundImageFix" result="effect1_dropShadow_10_319"/>
<feBlend mode="normal" in="SourceGraphic" in2="effect1_dropShadow_10_319" result="shape"/>
<feColorMatrix in="SourceAlpha" type="matrix" values="0 0 0 0 0 0 0 0 0 0 0 0 0 0 0 0 0 0 127 0" result="hardAlpha"/>
<feOffset dx="-2.70459" dy="0.724693"/>
<feGaussianBlur stdDeviation="1.4"/>
<feComposite in2="hardAlpha" operator="arithmetic" k2="-1" k3="1"/>
<feColorMatrix type="matrix" values="0 0 0 0 0.00860196 0 0 0 0 0.180641 0 0 0 0 0.223651 0 0 0 1 0"/>
<feBlend mode="normal" in2="shape" result="effect2_innerShadow_10_319"/>
<feColorMatrix in="SourceAlpha" type="matrix" values="0 0 0 0 0 0 0 0 0 0 0 0 0 0 0 0 0 0 127 0" result="hardAlpha"/>
<feOffset dx="2.70459" dy="-0.724693"/>
<feGaussianBlur stdDeviation="1.4"/>
<feComposite in2="hardAlpha" operator="arithmetic" k2="-1" k3="1"/>
<feColorMatrix type="matrix" values="0 0 0 0 0.00689461 0 0 0 0 0.144787 0 0 0 0 0.17926 0 0 0 1 0"/>
<feBlend mode="normal" in2="effect2_innerShadow_10_319" result="effect3_innerShadow_10_319"/>
</filter>
<filter id="filter1_dii_10_319" x="258.227" y="691.392" width="86.6667" height="86.6667" filterUnits="userSpaceOnUse" color-interpolation-filters="sRGB">
<feFlood flood-opacity="0" result="BackgroundImageFix"/>
<feColorMatrix in="SourceAlpha" type="matrix" values="0 0 0 0 0 0 0 0 0 0 0 0 0 0 0 0 0 0 127 0" result="hardAlpha"/>
<feOffset dx="-6.43951" dy="1.72546"/>
<feGaussianBlur stdDeviation="6.66667"/>
<feColorMatrix type="matrix" values="0 0 0 0 0.00156863 0 0 0 0 0.0329412 0 0 0 0 0.0407843 0 0 0 0.4115 0"/>
<feBlend mode="normal" in2="BackgroundImageFix" result="effect1_dropShadow_10_319"/>
<feBlend mode="normal" in="SourceGraphic" in2="effect1_dropShadow_10_319" result="shape"/>
<feColorMatrix in="SourceAlpha" type="matrix" values="0 0 0 0 0 0 0 0 0 0 0 0 0 0 0 0 0 0 127 0" result="hardAlpha"/>
<feOffset dx="-2.70459" dy="0.724693"/>
<feGaussianBlur stdDeviation="1.4"/>
<feComposite in2="hardAlpha" operator="arithmetic" k2="-1" k3="1"/>
<feColorMatrix type="matrix" values="0 0 0 0 0.00860196 0 0 0 0 0.180641 0 0 0 0 0.223651 0 0 0 1 0"/>
<feBlend mode="normal" in2="shape" result="effect2_innerShadow_10_319"/>
<feColorMatrix in="SourceAlpha" type="matrix" values="0 0 0 0 0 0 0 0 0 0 0 0 0 0 0 0 0 0 127 0" result="hardAlpha"/>
<feOffset dx="2.70459" dy="-0.724693"/>
<feGaussianBlur stdDeviation="1.4"/>
<feComposite in2="hardAlpha" operator="arithmetic" k2="-1" k3="1"/>
<feColorMatrix type="matrix" values="0 0 0 0 0.00689461 0 0 0 0 0.144787 0 0 0 0 0.17926 0 0 0 1 0"/>
<feBlend mode="normal" in2="effect2_innerShadow_10_319" result="effect3_innerShadow_10_319"/>
</filter>
<filter id="filter2_dii_10_319" x="17.2272" y="691.392" width="86.6667" height="86.6667" filterUnits="userSpaceOnUse" color-interpolation-filters="sRGB">
<feFlood flood-opacity="0" result="BackgroundImageFix"/>
<feColorMatrix in="SourceAlpha" type="matrix" values="0 0 0 0 0 0 0 0 0 0 0 0 0 0 0 0 0 0 127 0" result="hardAlpha"/>
<feOffset dx="-6.43951" dy="1.72546"/>
<feGaussianBlur stdDeviation="6.66667"/>
<feColorMatrix type="matrix" values="0 0 0 0 0.141176 0 0 0 0 0.713726 0 0 0 0 0.521569 0 0 0 0.25 0"/>
<feBlend mode="normal" in2="BackgroundImageFix" result="effect1_dropShadow_10_319"/>
<feBlend mode="normal" in="SourceGraphic" in2="effect1_dropShadow_10_319" result="shape"/>
<feColorMatrix in="SourceAlpha" type="matrix" values="0 0 0 0 0 0 0 0 0 0 0 0 0 0 0 0 0 0 127 0" result="hardAlpha"/>
<feOffset dx="-2.70459" dy="0.724693"/>
<feGaussianBlur stdDeviation="1.4"/>
<feComposite in2="hardAlpha" operator="arithmetic" k2="-1" k3="1"/>
<feColorMatrix type="matrix" values="0 0 0 0 0.00860196 0 0 0 0 0.180641 0 0 0 0 0.223651 0 0 0 1 0"/>
<feBlend mode="normal" in2="shape" result="effect2_innerShadow_10_319"/>
<feColorMatrix in="SourceAlpha" type="matrix" values="0 0 0 0 0 0 0 0 0 0 0 0 0 0 0 0 0 0 127 0" result="hardAlpha"/>
<feOffset dx="2.70459" dy="-0.724693"/>
<feGaussianBlur stdDeviation="1.4"/>
<feComposite in2="hardAlpha" operator="arithmetic" k2="-1" k3="1"/>
<feColorMatrix type="matrix" values="0 0 0 0 0.00689461 0 0 0 0 0.144787 0 0 0 0 0.17926 0 0 0 1 0"/>
<feBlend mode="normal" in2="effect2_innerShadow_10_319" result="effect3_innerShadow_10_319"/>
</filter>
<filter id="filter3_dii_10_319" x="19.2272" y="173.392" width="322.667" height="322.667" filterUnits="userSpaceOnUse" color-interpolation-filters="sRGB">
<feFlood flood-opacity="0" result="BackgroundImageFix"/>
<feColorMatrix in="SourceAlpha" type="matrix" values="0 0 0 0 0 0 0 0 0 0 0 0 0 0 0 0 0 0 127 0" result="hardAlpha"/>
<feOffset dx="-6.43951" dy="1.72546"/>
<feGaussianBlur stdDeviation="6.66667"/>
<feColorMatrix type="matrix" values="0 0 0 0 0.00156863 0 0 0 0 0.0329412 0 0 0 0 0.0407843 0 0 0 0.4115 0"/>
<feBlend mode="normal" in2="BackgroundImageFix" result="effect1_dropShadow_10_319"/>
<feBlend mode="normal" in="SourceGraphic" in2="effect1_dropShadow_10_319" result="shape"/>
<feColorMatrix in="SourceAlpha" type="matrix" values="0 0 0 0 0 0 0 0 0 0 0 0 0 0 0 0 0 0 127 0" result="hardAlpha"/>
<feOffset dx="-2.70459" dy="0.724693"/>
<feGaussianBlur stdDeviation="1.4"/>
<feComposite in2="hardAlpha" operator="arithmetic" k2="-1" k3="1"/>
<feColorMatrix type="matrix" values="0 0 0 0 0.00860196 0 0 0 0 0.180641 0 0 0 0 0.223651 0 0 0 1 0"/>
<feBlend mode="normal" in2="shape" result="effect2_innerShadow_10_319"/>
<feColorMatrix in="SourceAlpha" type="matrix" values="0 0 0 0 0 0 0 0 0 0 0 0 0 0 0 0 0 0 127 0" result="hardAlpha"/>
<feOffset dx="2.70459" dy="-0.724693"/>
<feGaussianBlur stdDeviation="1.4"/>
<feComposite in2="hardAlpha" operator="arithmetic" k2="-1" k3="1"/>
<feColorMatrix type="matrix" values="0 0 0 0 0.00689461 0 0 0 0 0.144787 0 0 0 0 0.17926 0 0 0 1 0"/>
<feBlend mode="normal" in2="effect2_innerShadow_10_319" result="effect3_innerShadow_10_319"/>
</filter>
</defs>
</svg>
