<svg width="256" height="252" viewBox="0 0 256 252" fill="none" xmlns="http://www.w3.org/2000/svg">
<g clip-path="url(#clip0_154_637)">
<path d="M249.868 0H81.6133V84.362H164.403C165.82 84.3623 167.179 84.9252 168.18 85.9269C169.182 86.9287 169.745 88.2873 169.745 89.704V171.351H255.21V5.352C255.212 4.64964 255.074 3.95391 254.807 3.30463C254.539 2.65536 254.145 2.06528 253.649 1.56817C253.153 1.07106 252.564 0.676676 251.915 0.40759C251.266 0.138504 250.571 -1.23061e-06 249.868 0V0Z" fill="#8E75FF"/>
<path opacity="0.405" d="M81.6031 0V84.362H2.67113C2.1409 84.3609 1.62294 84.2024 1.18297 83.9065C0.743008 83.6105 0.400872 83.1906 0.199984 82.6999C-0.000903741 82.2092 -0.0514877 81.6698 0.0546513 81.1503C0.16079 80.6308 0.418868 80.1546 0.796133 79.782L81.6031 0ZM174.296 251.22C173.92 251.589 173.444 251.839 172.927 251.939C172.409 252.038 171.874 251.983 171.388 251.779C170.902 251.576 170.487 251.234 170.195 250.796C169.903 250.357 169.746 249.843 169.745 249.316V171.351H255.21L174.296 251.211V251.221V251.22Z" fill="#8E75FF"/>
<path opacity="0.405" d="M81.603 84.3621H167.079C167.786 84.3631 168.463 84.6443 168.963 85.1441C169.463 85.6438 169.744 86.3213 169.745 87.0281V171.351H86.955C86.2535 171.351 85.5589 171.213 84.9107 170.944C84.2626 170.676 83.6737 170.282 83.1777 169.786C82.6816 169.29 82.2881 168.701 82.0197 168.053C81.7512 167.405 81.613 166.711 81.613 166.009V84.3621H81.603Z" fill="#8E75FF"/>
</g>
<defs>
<clipPath id="clip0_154_637">
<rect width="256" height="252" fill="white"/>
</clipPath>
</defs>
</svg>
